<svg width="14" height="14" viewBox="0 0 14 14" fill="none" xmlns="http://www.w3.org/2000/svg">
<g id="vuesax/linear/more">
<g id="more">
<path id="Vector" d="M11.65 7C11.65 7.3103 11.3936 7.56667 11.0833 7.56667C10.773 7.56667 10.5167 7.3103 10.5167 7C10.5167 6.68971 10.773 6.43334 11.0833 6.43334C11.3936 6.43334 11.65 6.68971 11.65 7Z" stroke="#00003A" stroke-width="1.2"/>
<path id="Vector_2" d="M3.48337 7C3.48337 7.3103 3.227 7.56667 2.91671 7.56667C2.60641 7.56667 2.35004 7.3103 2.35004 7C2.35004 6.68971 2.60641 6.43334 2.91671 6.43334C3.227 6.43334 3.48337 6.68971 3.48337 7Z" stroke="#00003A" stroke-width="1.2"/>
<path id="Vector_3" d="M7.56663 7C7.56663 7.3103 7.31026 7.56667 6.99996 7.56667C6.68966 7.56667 6.43329 7.3103 6.43329 7C6.43329 6.68971 6.68966 6.43334 6.99996 6.43334C7.31026 6.43334 7.56663 6.68971 7.56663 7Z" stroke="#00003A" stroke-width="1.2"/>
</g>
</g>
</svg>
