<svg width="14" height="14" viewBox="0 0 24 24" fill="none" xmlns="http://www.w3.org/2000/svg">
<path d="M21 5.98C17.67 5.65 14.32 5.48 10.98 5.48C9 5.48 7.02 5.58 5.04 5.78L3 5.98" stroke="#00003A" stroke-width="1.5" stroke-linecap="round" stroke-linejoin="round"/>
<path d="M8.5 4.97L8.72 3.66C8.88 2.71 9 2 10.69 2H13.31C15 2 15.13 2.75 15.28 3.67L15.5 4.97" stroke="#00003A" stroke-width="1.5" stroke-linecap="round" stroke-linejoin="round"/>
<path d="M18.85 9.14L18.2 19.21C18.09 20.78 18 22 15.21 22H8.79C6 22 5.91 20.78 5.8 19.21L5.15 9.14" stroke="#00003A" stroke-width="1.5" stroke-linecap="round" stroke-linejoin="round"/>
<path d="M10 12.83L10 16.16" stroke="#00003A" stroke-width="1.5" stroke-linecap="round" stroke-linejoin="round"/>
<path d="M14 12L14 17" stroke="#00003A" stroke-width="1.5" stroke-linecap="round" stroke-linejoin="round"/>
</svg>
